<?xml version="1.0" encoding="UTF-8"?>
<svg id="Layer_2" data-name="Layer 2" xmlns="http://www.w3.org/2000/svg" viewBox="0 0 310.72 128">
  <defs>
    <style>
      .cls-1 {
        fill: #fff;
        stroke-width: 0px;
      }
    </style>
  </defs>
  <g id="Layer_2-2" data-name="Layer 2">
    <g>
      <path class="cls-1" d="M16.84,58.15H1.53v-3.05h6.11V12.24H1.53v-3.06h18.37v12.24h3.05v9.19h3.06v9.17h3.06v9.19h3.07v9.18h-9.19v-9.18h-3.05v-9.19h-3.06v-9.17h-3.06v-9.19h-3.06v33.69h6.13v3.05ZM35.21,48.98h-3.06v-9.19h3.06v9.19ZM38.27,39.78h-3.06v-9.17h3.06v9.17ZM59.69,58.15h-21.42v-3.05h6.11V21.42h-3.06v-12.24h18.37v3.06h-6.11v42.87h6.11v3.05ZM41.32,30.61h-3.05v-9.19h3.05v9.19Z"/>
      <path class="cls-1" d="M96.42,58.15h-9.19v-3.05h-6.11v-3.06h3.05v-12.26h-3.05v-3.05h3.05v-6.13h-3.05v-3.06h-6.13v3.06h-3.06v3.06h-9.18v-3.06h3.05v-3.06h3.06v-3.06h18.37v3.06h3.06v3.06h3.07v24.5h3.06v3.05ZM81.12,58.15h-12.26v-3.05h-3.06v-3.06h-3.05v-6.13h3.05v-3.06h6.13v-3.06h9.19v3.06h-6.13v3.06h-3.06v6.13h3.06v3.06h6.13v3.05Z"/>
      <path class="cls-1" d="M116.32,58.15h-15.3v-3.05h3.05V12.24h-3.05v-3.06h3.05v-3.06h3.06v-3.06h3.07V0h3.06v39.78h3.06v-3.05h3.06v-3.06h3.05v6.11h3.06v3.06h3.06v3.06h3.07v3.06h3.06v3.06h3.06v3.06h3.05v3.05h-16.84v-3.05h3.06v-3.06h-3.06v-3.06h-3.06v-3.06h-3.05v-3.06h-4.6v12.26h3.06v3.05ZM128.56,30.61h-3.06v-3.06h-4.6v-3.06h16.86v3.06h-9.19v3.06ZM125.5,33.67h-3.06v-3.06h3.06v3.06Z"/>
      <path class="cls-1" d="M168.35,58.15h-18.37v-3.05h-3.07v-3.06h-3.06v-6.13h-3.05v-9.18h3.05v-6.13h3.06v-3.06h3.07v-3.06h18.37v3.06h3.07v3.06h3.06v6.13h-24.5v9.18h3.06v6.13h3.06v3.06h12.24v3.05ZM149.98,33.67h15.3v-3.06h-3.06v-3.06h-9.17v3.06h-3.06v3.06ZM171.41,55.11h-3.07v-3.06h3.07v3.06ZM174.48,52.04h-3.06v-3.06h3.06v3.06Z"/>
      <path class="cls-1" d="M217.35,58.15h-19.9v-3.05h-3.05v-7.66h4.58v4.6h3.06v3.06h10.73v-3.06h3.05v-6.13h-7.64v-3.06h-7.66v-3.06h-4.6v-3.05h-1.51v-6.13h1.51v-3.06h3.06v-3.06h18.37v3.06h3.06v6.13h-3.06v-3.06h-3.06v-3.06h-10.71v3.06h-3.07v3.06h3.07v3.06h9.19v3.05h6.11v3.06h3.06v9.19h-1.53v3.06h-3.06v3.05Z"/>
      <path class="cls-1" d="M241.84,58.15h-15.3v-3.05h3.05V12.24h-3.05v-3.06h3.05v-3.06h3.06v-3.06h3.07V0h3.06v27.54h3.06v3.06h-3.06v24.5h3.06v3.05ZM264.81,58.15h-15.32v-3.05h3.06v-24.5h-3.06v-3.06h-7.64v-3.06h13.77v3.06h3.07v3.06h3.06v24.5h3.06v3.05Z"/>
      <path class="cls-1" d="M284.71,58.15h-15.3v-3.05h3.05v-21.43h-3.05v-3.06h3.05v-3.06h3.06v-3.06h3.07v-3.06h3.06v33.69h3.06v3.05ZM281.65,18.37h-9.19v-9.19h9.19v9.19Z"/>
      <path class="cls-1" d="M307.68,58.15h-12.26v-3.05h-3.06v-27.56h-3.05v-3.06h3.05v-3.06h3.06v-3.05h3.07v-3.06h3.06v9.18h9.17v3.06h-9.17v27.56h6.13v3.05ZM310.72,55.11h-3.05v-3.06h3.05v3.06Z"/>
      <path class="cls-1" d="M22.95,128h-9.19v-7.64h-3.07v-7.66h-3.06v-7.64h-3.05v-7.66H0v-3.06h42.85v3.06h-4.6v7.66h3.06v7.64h3.05v7.66h3.06v7.64h-9.17v-7.64h-3.06v-7.66h-3.07v-7.64h-3.06v-7.66h-15.3v7.66h3.06v7.64h3.06v7.66h3.06v7.64ZM25.99,120.36h-3.05v-7.66h3.05v7.66ZM29.06,112.7h-3.06v-7.64h3.06v7.64ZM50.49,120.36h-3.06v-7.66h3.06v7.66ZM56.62,105.05h-3.07v-7.66h-4.6v-3.06h12.26v3.06h-4.6v7.66ZM53.56,112.7h-3.06v-7.64h3.06v7.64Z"/>
      <path class="cls-1" d="M78.06,128h-15.3v-3.05h3.05v-21.43h-3.05v-3.06h3.05v-3.06h3.06v-3.06h3.07v-3.06h3.06v33.69h3.06v3.05ZM74.99,88.22h-9.19v-9.19h9.19v9.19Z"/>
      <path class="cls-1" d="M101.02,128h-12.26v-3.05h-3.06v-27.56h-3.05v-3.06h3.05v-3.06h3.06v-3.05h3.07v-3.06h3.06v9.18h9.17v3.06h-9.17v27.56h6.13v3.05ZM104.07,124.96h-3.05v-3.06h3.05v3.06Z"/>
      <path class="cls-1" d="M123.97,128h-15.3v-3.05h3.05v-42.87h-3.05v-3.06h3.05v-3.06h3.06v-3.06h3.07v-3.05h3.06v27.54h3.06v3.06h-3.06v24.5h3.06v3.05ZM146.93,128h-15.32v-3.05h3.06v-24.5h-3.06v-3.06h-7.64v-3.06h13.77v3.06h3.07v3.06h3.06v24.5h3.06v3.05Z"/>
      <path class="cls-1" d="M182.16,128h-9.19v-3.05h-3.06v-3.06h-3.06v-24.5h-3.05v-3.06h12.24v27.56h3.06v3.06h3.06v3.05ZM185.2,124.96h-3.05v-3.06h3.05v3.06ZM200.53,128h-12.26v-6.11h-3.06v-3.06h3.06v-21.43h-3.06v-3.06h12.26v30.63h3.06v3.05Z"/>
      <path class="cls-1" d="M228.07,128h-19.9v-3.05h-3.05v-7.66h4.58v4.6h3.06v3.06h10.73v-3.06h3.05v-6.13h-7.64v-3.06h-7.66v-3.06h-4.6v-3.05h-1.51v-6.13h1.51v-3.06h3.06v-3.06h18.37v3.06h3.06v6.13h-3.06v-3.06h-3.06v-3.06h-10.71v3.06h-3.07v3.06h3.07v3.06h9.19v3.05h6.11v3.06h3.06v9.19h-1.53v3.06h-3.06v3.05Z"/>
      <path class="cls-1" d="M246.44,128h-9.18v-9.18h9.18v9.18Z"/>
    </g>
  </g>
</svg>