<?xml version="1.0" encoding="UTF-8"?>
<svg id="Layer_2" data-name="Layer 2" xmlns="http://www.w3.org/2000/svg" viewBox="0 0 329.92 126.44">
  <defs>
    <style>
      .cls-1 {
        fill: #fff;
        stroke-width: 0px;
      }
    </style>
  </defs>
  <g id="Layer_2-2" data-name="Layer 2">
    <g>
      <path class="cls-1" d="M22.44,17.81l-.37-7.73h-.07l-9.34,32.3c-1.91,6.77-2.94,10.45,3.24,10.6l-.66,2.21H0l.59-2.21c6.18-.15,7.14-3.83,9.05-10.6l8.76-30.46c1.03-3.46,1.4-5.89-4.27-6.03l.66-2.21h13.61l2.87,34.8.22,6.33h.15L58.13,3.68h14.05l-.66,2.21c-6.11.07-6.55,1.55-8.46,8.24l-8.98,31.42c-1.62,5.89-2.06,7.28,3.97,7.43l-.66,2.21h-19.28l.66-2.21c6.33-.22,6.77-1.54,8.46-7.43l10.23-35.46h-.15l-29.29,45.4h-2.35l-3.24-37.67Z"/>
      <path class="cls-1" d="M105.36,44.44c-3.02,6.33-6.84,11.48-12.43,11.48-2.5,0-5.59-3.02-5.59-5.89,0-3.16,3.16-8.39,4.34-11.4h-.15c-5.08,10.08-11.55,17.29-17.37,17.29-4.12,0-7.58-3.24-7.5-10.82.15-12.29,9.93-27.3,20.9-27.3,4.86,0,7.36,2.94,7.95,7.87l2.87-7.14,5.59-.74c-4.86,15.89-10.96,29.43-10.96,33.11,0,1.4.44,2.28,1.77,2.28,2.65,0,5.74-3.6,8.61-9.71l1.99.96ZM93.66,29.43c.07-5.52-1.47-9.12-5-9.12-2.65,0-5.37,2.13-7.65,4.93-5.22,6.4-8.46,16.19-8.46,22.44,0,3.53,1.03,5.44,3.24,5.44,4.93,0,12.73-10.08,17.88-23.69Z"/>
      <path class="cls-1" d="M141.12,43.48l1.91.96c-2.94,6.33-6.84,11.48-12.44,11.48-2.43,0-5.81-3.16-5.66-7.5.07-2.28,2.57-6.55,2.57-8.54,0-2.35-4.93-4.05-8.98-3.83l-3.46,11.55-1.99,7.58-7.14.74c3.68-10.45,6.92-18.76,9.71-27.81l5.74-18.69c1.11-3.46,2.06-6.62-3.38-6.4l.66-2.13,11.77-.88.59.88-12.14,32.59c.51.22,1.03.29,1.47.37,8.24.88,8.76-16.04,17.22-16.04,3.75,0,5.89,2.87,5.89,6.55s-2.43,7.65-6.11,7.65c-1.77,0-3.16-1.03-3.16-3.16,2.58-.81,4.42-3.24,4.42-5.81,0-1.55-.96-2.65-2.21-2.65-4.34,0-6.4,12.21-12.88,14.57,6.03,1.25,9.27,4.41,9.27,7.65,0,2.8-1.99,6.62-2.06,8.31-.07,1.4.37,2.28,1.69,2.28,2.5,0,5.81-3.6,8.68-9.71Z"/>
      <path class="cls-1" d="M155.1,38.92c-.66,2.58-1.03,5-1.03,6.84,0,3.75,1.47,7.58,6.62,7.58,4.63,0,9.12-3.16,13.24-10.67l1.91.96c-4.86,8.46-9.93,12.29-16.26,12.29-7.06,0-11.48-4.93-11.48-12.8,0-11.92,9.93-25.31,22.22-25.31,4.86,0,8.76,2.35,8.76,6.92,0,8.54-12.8,13.69-23.99,14.2ZM155.69,36.72c9.93-.66,18.1-5.52,18.62-11.99.15-2.5-.88-4.64-4.34-4.64-3.09,0-5.96,1.84-8.61,5.3-2.5,3.16-4.41,7.36-5.67,11.33Z"/>
      <path class="cls-1" d="M221.17,45.84c0-3.68-2.94-5-7.87-7.14-4.34-1.84-7.73-4.05-7.73-8.83,0-7.21,7.21-12.07,14.86-12.07,6.03,0,10.6,3.02,10.45,7.43-.15,3.09-2.28,6.48-5.67,6.48-1.62,0-2.94-.88-2.87-2.72,2.43-.88,4.2-2.65,4.27-4.86.15-2.94-3.16-4.05-6.4-4.05-5,0-9.71,3.02-9.71,7.36,0,2.94,2.58,4.19,6.4,5.81,5.59,2.35,10.08,4.19,10.08,9.79-.07,7.36-7.29,12.88-16.34,12.88-6.62,0-11.18-3.09-11.18-7.8,0-3.75,2.58-7.58,6.33-7.58,1.99,0,3.46,1.25,3.09,3.38-3.02.59-5,2.65-5,5.3,0,2.94,3.31,4.42,6.99,4.42,5.52,0,10.3-3.02,10.3-7.8Z"/>
      <path class="cls-1" d="M272.31,44.44c-2.94,6.33-6.84,11.48-12.36,11.48-2.5,0-5.89-3.16-5.74-7.5.22-6.33,8.17-16.26,8.9-23.91.15-1.84-.44-3.83-2.72-3.83-5.52,0-14.35,11.26-19.5,26.41l-.15.52-2.06,7.58-7.14.74c3.68-10.45,6.92-18.76,9.71-27.81l5.74-18.69c1.1-3.46,2.06-6.62-3.38-6.4l.66-2.13,11.77-.88.59.88-3.75,10.08-5.3,15.52-3.75,8.61h.29c5.08-10.08,11.77-17.29,17.88-17.29,4.71,0,7.29,3.83,7.06,7.8-.44,6.92-8.76,19.65-9.05,25.31,0,1.4.44,2.28,1.77,2.28,2.5,0,5.74-3.6,8.61-9.71l1.91.96Z"/>
      <path class="cls-1" d="M279.22,48.41c.22-6.4,8.54-18.98,9.12-23.77.22-1.77-.22-4.12-2.06-4.12-2.36,0-5.59,3.68-8.46,9.71l-1.91-.96c2.94-6.33,6.84-11.48,12.51-11.48,3.61,0,6.25,3.83,6.11,7.58-.37,7.28-9.2,19.72-9.42,25.53-.07,1.4.37,2.28,1.69,2.28,2.5,0,5.74-3.6,8.61-9.71l1.99.96c-2.94,6.33-6.84,11.48-12.43,11.48-2.43,0-5.89-3.16-5.74-7.5ZM292.25,5.74c0-2.72,1.77-4.64,4.78-4.64s4.78,1.84,4.78,4.64c0,2.65-1.69,4.64-4.78,4.64s-4.78-1.99-4.78-4.64Z"/>
      <path class="cls-1" d="M310.42,44.44c-.88,2.8-1.47,4.41-1.47,5.67,0,1.47.37,3.09,2.72,3.09,3.75,0,6.7-3.9,9.49-9.71l1.91.96c-2.65,5.74-6.62,11.48-13.02,11.48-3.75,0-7.14-3.53-6.92-7.5.15-2.5,2.57-8.68,4.78-15.38l3.75-11.77h-6.4l.88-2.72h6.4c2.94-3.75,5.22-8.24,7.36-12.66l3.46-.74-4.41,13.39,10.96-.22-1.03,3.16-10.82-.22-7.65,23.18Z"/>
      <path class="cls-1" d="M58.27,96.93c0,11.85-12.29,29.36-23.99,29.36-4.63,0-7.5-2.28-7.5-6.62,0-2.72,1.54-6.18,3.46-10.67h-.15c-4.93,10.08-11.33,17.29-16.92,17.29-4.71,0-7.29-3.83-7.06-7.8.37-6.92,10.08-19.65,10.38-25.31,0-1.4-.44-2.28-1.77-2.28-2.5,0-5.74,3.61-8.61,9.71l-1.91-.96c2.94-6.33,6.84-11.48,12.36-11.48,2.43,0,5.89,3.16,5.74,7.5-.22,6.33-9.49,16.26-10.23,23.91-.15,1.84.44,3.83,2.5,3.83,4.56,0,13.46-11.26,18.62-26.49l.15-.44,2.06-7.58,6.92-.74c-5,16.55-10.74,26.34-10.74,31.71,0,2.87,1.69,3.75,4.04,3.75,7.21,0,18.54-11.99,18.54-22.22,0-4.12-1.84-8.17-6.92-10.01.37-2.13,2.13-3.24,4.19-3.24,3.68,0,6.84,3.02,6.84,8.76Z"/>
      <path class="cls-1" d="M64.82,118.78c.22-6.4,8.54-18.98,9.12-23.77.22-1.77-.22-4.12-2.06-4.12-2.35,0-5.59,3.68-8.46,9.71l-1.91-.96c2.94-6.33,6.84-11.48,12.51-11.48,3.61,0,6.25,3.83,6.11,7.58-.37,7.28-9.2,19.72-9.42,25.53-.07,1.4.37,2.28,1.69,2.28,2.5,0,5.74-3.6,8.61-9.71l1.99.96c-2.94,6.33-6.84,11.48-12.44,11.48-2.43,0-5.89-3.16-5.74-7.5ZM77.85,76.11c0-2.72,1.77-4.64,4.78-4.64s4.78,1.84,4.78,4.64c0,2.65-1.69,4.64-4.78,4.64s-4.78-1.99-4.78-4.64Z"/>
      <path class="cls-1" d="M96.02,114.81c-.88,2.8-1.47,4.41-1.47,5.67,0,1.47.37,3.09,2.72,3.09,3.75,0,6.7-3.9,9.49-9.71l1.91.96c-2.65,5.74-6.62,11.48-13.02,11.48-3.75,0-7.14-3.53-6.92-7.5.15-2.5,2.57-8.68,4.78-15.38l3.75-11.77h-6.4l.88-2.72h6.4c2.94-3.75,5.22-8.24,7.36-12.66l3.46-.74-4.41,13.39,10.96-.22-1.03,3.16-10.82-.22-7.65,23.18Z"/>
      <path class="cls-1" d="M151.79,114.81c-2.94,6.33-6.84,11.48-12.36,11.48-2.5,0-5.89-3.16-5.74-7.5.22-6.33,8.17-16.26,8.9-23.91.15-1.84-.44-3.83-2.72-3.83-5.52,0-14.35,11.26-19.5,26.41l-.15.52-2.06,7.58-7.14.74c3.68-10.45,6.92-18.76,9.71-27.81l5.74-18.69c1.1-3.46,2.06-6.62-3.38-6.4l.66-2.13,11.77-.88.59.88-3.75,10.08-5.3,15.52-3.75,8.61h.29c5.08-10.08,11.77-17.29,17.88-17.29,4.71,0,7.29,3.83,7.06,7.8-.44,6.92-8.76,19.65-9.05,25.31,0,1.4.44,2.28,1.77,2.28,2.5,0,5.74-3.6,8.61-9.71l1.91.96Z"/>
      <path class="cls-1" d="M215.21,114.81c-2.94,6.33-6.84,11.48-12.44,11.48-2.43,0-5.59-3.02-5.59-5.89,0-3.16,3.16-8.39,4.41-11.4h-.22c-5.08,10.08-11.77,17.29-17.8,17.29-4.71,0-7.29-3.83-7.06-7.8.37-6.92,8.61-19.65,8.83-25.31.07-1.4-.37-2.28-1.69-2.28-2.5,0-5.74,3.61-8.61,9.71l-1.91-.96c2.94-6.33,6.77-11.48,12.36-11.48,2.43,0,5.89,3.16,5.74,7.5-.22,6.33-8.02,16.26-8.76,23.91-.22,1.84.44,3.83,2.72,3.83,5.37,0,14.2-11.26,19.35-26.41l.15-.52,2.06-7.58,7.14-.74c-4.86,15.89-11.04,29.43-11.04,33.11,0,1.4.44,2.28,1.77,2.28,2.72,0,5.74-3.6,8.68-9.71l1.91.96Z"/>
      <path class="cls-1" d="M238.98,116.21c0-3.68-2.94-5-7.87-7.14-4.34-1.84-7.73-4.05-7.73-8.83,0-7.21,7.21-12.07,14.86-12.07,6.03,0,10.6,3.02,10.45,7.43-.15,3.09-2.28,6.48-5.67,6.48-1.62,0-2.94-.88-2.87-2.72,2.43-.88,4.2-2.65,4.27-4.86.15-2.94-3.16-4.05-6.4-4.05-5,0-9.71,3.02-9.71,7.36,0,2.94,2.58,4.19,6.4,5.81,5.59,2.35,10.08,4.19,10.08,9.79-.07,7.36-7.29,12.88-16.34,12.88-6.62,0-11.18-3.09-11.18-7.8,0-3.75,2.58-7.58,6.33-7.58,1.99,0,3.46,1.25,3.09,3.38-3.02.59-5,2.65-5,5.3,0,2.94,3.31,4.42,6.99,4.42,5.52,0,10.3-3.02,10.3-7.8Z"/>
      <path class="cls-1" d="M250.9,121.58c0-2.87,1.91-4.86,5.08-4.86s5.08,1.99,5.08,4.86-1.77,4.86-5.08,4.86-5.08-2.06-5.08-4.86Z"/>
    </g>
  </g>
</svg>