<?xml version="1.0" encoding="UTF-8"?>
<svg id="Layer_2" data-name="Layer 2" xmlns="http://www.w3.org/2000/svg" viewBox="0 0 134.74 33.13">
  <defs>
    <style>
      .cls-1 {
        fill: #fff;
      }
    </style>
  </defs>
  <g id="Layer_1-2" data-name="Layer 1">
    <g>
      <g>
        <path class="cls-1" d="M130.7,23.5l-.41-.11c-1.55-.43-3.23-.98-3.23-2.61,0-1.46,1.37-2.21,2.91-2.21s2.91.82,2.84,2.77c0,.25-.09.52-.2,1.18h.46l1.09-3.09c-.59-.54-2.14-1.45-4.09-1.45-2.5,0-4.14,1.52-4.14,3.84,0,2.16,1.46,3.43,3.52,4.02l.52.16c2.21.66,3.57,1.02,3.57,2.71s-1.43,2.55-3.55,2.55c-1.57,0-3.28-.71-3.28-2.98,0-.46.09-1.04.21-1.96h-.46l-1.18,3.48c1.09,1.18,2.62,2.09,4.73,2.09,2.73,0,4.73-1.52,4.73-4.28,0-2.91-2.25-3.61-4.03-4.11Z"/>
        <path class="cls-1" d="M119.68,25.12c2.25-.32,3.78-1.66,3.78-3.57,0-2.32-2.32-3.43-4.52-3.43h-5.73v.23l1.34.55v11.92l-1.34.62v.23h4.61v-.23l-1.34-.62v-5.53h1.16l3.57,5.66-1.27.5v.23h5.07v-.23l-1.71-.62-3.62-5.71ZM116.48,24.53v-5.64h1.8c1.77,0,3.28.62,3.28,2.7,0,1.93-1.29,2.95-3.28,2.95h-1.8Z"/>
        <path class="cls-1" d="M105.75,17.98c-3.37,0-6.52,2.8-6.52,7.01s2.84,6.89,6.19,6.89,6.68-2.98,6.68-7.1-2.95-6.8-6.35-6.8ZM106.04,31.23c-2.25,0-4.64-2.34-4.64-6.87,0-4.27,2.2-5.71,3.98-5.71,2.5,0,4.46,2.3,4.46,6.87,0,3.91-1.68,5.71-3.8,5.71Z"/>
        <polygon class="cls-1" points="93.52 18.36 94.86 18.91 94.86 30.83 93.52 31.46 93.52 31.69 98.12 31.69 98.12 31.46 96.78 30.83 96.78 18.91 98.12 18.36 98.12 18.12 93.52 18.12 93.52 18.36"/>
        <path class="cls-1" d="M87.78,25.12c2.25-.32,3.78-1.66,3.78-3.57,0-2.32-2.32-3.43-4.52-3.43h-5.73v.23l1.34.55v11.92l-1.34.62v.23h4.61v-.23l-1.34-.62v-5.53h1.16l3.57,5.66-1.27.5v.23h5.07v-.23l-1.71-.62-3.62-5.71ZM84.58,24.53v-5.64h1.8c1.77,0,3.28.62,3.28,2.7,0,1.93-1.29,2.95-3.28,2.95h-1.8Z"/>
        <polygon class="cls-1" points="78.57 30.87 74.11 30.87 74.11 24.87 76.96 24.87 77.52 26.39 77.93 26.39 77.93 22.6 77.52 22.6 76.96 24.12 74.11 24.12 74.11 18.86 78.39 18.86 79.78 20.89 80.07 20.89 79.44 18.12 70.84 18.12 70.84 18.36 72.18 18.91 72.18 30.83 70.84 31.46 70.84 31.69 79.62 31.69 80.25 28.92 79.96 28.92 78.57 30.87"/>
        <polygon class="cls-1" points="59.22 18.12 58.59 20.89 58.95 20.89 60.22 18.86 63.39 18.86 63.39 30.83 62.05 31.46 62.05 31.69 66.66 31.69 66.66 31.46 65.32 30.83 65.32 18.86 68.48 18.86 69.76 20.89 70.1 20.89 69.48 18.12 59.22 18.12"/>
        <polygon class="cls-1" points="54.46 18.36 55.8 18.91 55.8 27.78 48.95 18.12 46.66 18.12 46.66 18.36 48 18.91 48 30.83 46.66 31.46 46.66 31.69 50.14 31.69 50.14 31.46 48.82 30.83 48.82 21.55 56.05 31.69 56.6 31.69 56.6 18.91 57.94 18.36 57.94 18.12 54.46 18.12 54.46 18.36"/>
        <polygon class="cls-1" points="40.79 18.36 42.13 18.91 42.13 30.83 40.79 31.46 40.79 31.69 45.39 31.69 45.39 31.46 44.05 30.83 44.05 18.91 45.39 18.36 45.39 18.12 40.79 18.12 40.79 18.36"/>
        <path class="cls-1" d="M88.97,12.26c1.07-1.22,1.61-2.9,1.61-5.03s-.52-3.84-1.55-5.09c-1.03-1.25-2.56-1.88-4.58-1.88h-5.03v13.83h4.89c2.04,0,3.59-.61,4.66-1.84ZM81.16,12.57V1.78h3.23c2.94,0,4.41,1.82,4.41,5.45s-1.51,5.34-4.54,5.34h-3.09Z"/>
        <polygon class="cls-1" points="67.63 2.75 67.67 2.75 68.7 4.47 75.04 14.1 76.82 14.1 76.82 .27 75.19 .27 75.19 11.66 75.15 11.66 74.15 9.88 67.85 .27 66.01 .27 66.01 14.1 67.63 14.1 67.63 2.75"/>
        <path class="cls-1" d="M55.63,9.88h5.51l1.47,4.22h1.9L59.41.27h-1.95l-5.09,13.83h1.78l1.49-4.22ZM57.78,3.83c.18-.53.39-1.18.64-1.95h.04l.62,1.95,1.59,4.64h-4.52l1.64-4.64Z"/>
        <path class="cls-1" d="M51.57,10.33c0-.61-.1-1.13-.31-1.59-.19-.46-.43-.84-.72-1.12-.27-.28-.66-.54-1.16-.75-.5-.22-.96-.38-1.37-.48-.41-.12-.94-.24-1.59-.37-.46-.09-.86-.17-1.18-.25-.32-.09-.65-.2-.99-.33-.32-.13-.59-.27-.79-.43-.19-.17-.35-.37-.48-.6-.12-.24-.17-.52-.17-.83,0-.71.28-1.26.83-1.64.57-.39,1.33-.58,2.28-.58,1.03,0,1.85.25,2.46.75.61.49.97,1.22,1.1,2.2h1.64c-.39-2.87-2.13-4.31-5.24-4.31-1.42,0-2.56.33-3.42.99-.85.64-1.28,1.53-1.28,2.67,0,.63.11,1.17.33,1.62.23.44.58.8,1.04,1.08.46.28.93.51,1.39.68.46.15,1.05.31,1.76.46.59.13,1.06.24,1.39.33.35.09.72.21,1.12.37.4.15.7.32.89.5.21.18.38.41.52.7.14.28.21.61.21.99,0,.84-.3,1.48-.91,1.93-.59.44-1.39.66-2.38.66-2.62,0-4.04-1.19-4.27-3.56h-1.7c.08,1.47.61,2.66,1.6,3.58,1.01.92,2.44,1.37,4.29,1.37,1.52,0,2.75-.35,3.67-1.06.94-.72,1.41-1.71,1.41-2.98Z"/>
      </g>
    </g>
  </g>
</svg>